<?xml version="1.0" encoding="utf-8"?>
<!-- Generator: Adobe Illustrator 22.1.0, SVG Export Plug-In . SVG Version: 6.00 Build 0)  -->
<svg version="1.1" id="Capa_1" xmlns="http://www.w3.org/2000/svg" xmlns:xlink="http://www.w3.org/1999/xlink" x="0px" y="0px"
	 viewBox="0 0 512 512" style="enable-background:new 0 0 512 512;" xml:space="preserve">
<style type="text/css">
	.st0{fill:#33CCCC;}
</style>
<g id="XMLID_829_">
	<g id="XMLID_475_">
		<path id="XMLID_509_" class="st0" d="M502.1,141.7c-6.4-6.4-14.9-9.9-24-9.9c-18.7,0-33.9,15.2-33.9,33.9v107.7L403,307.7v-45.9
			c0-39.3-31.9-71.2-71.2-71.2H294v-18.9c19.3-12.5,32.2-34.2,32.2-58.8V93.8H369c5.5,0,10-4.5,10-10s-4.5-10-10-10h-42.8V45.8
			c0-25.2-20.5-45.8-45.8-45.8h-48.5c-25.2,0-45.8,20.5-45.8,45.8v67.2c0,24.5,12.7,46.1,31.8,58.6v19.1h-37.8
			c-39.3,0-71.2,31.9-71.2,71.2v45.9l-41.1-34.3V165.7c0-18.7-15.2-33.9-33.9-33.9c-9.1,0-17.6,3.5-24,9.9S0,156.6,0,165.7l0,195.7
			c0,25.4,7,50.4,20.3,72l45.3,73.8c1.9,3.1,5.2,4.8,8.5,4.8c1.8,0,3.6-0.5,5.2-1.5c4.7-2.9,6.2-9,3.3-13.8L37.4,423
			C26,404.4,20,383.1,20,361.4l0-37.6l70.1,86.4c3.5,4.3,9.8,4.9,14.1,1.5c4.3-3.5,4.9-9.8,1.5-14.1l-74.5-91.8
			c-2.9-3.5-3.9-8.1-2.8-12.4c1.1-4.4,4.1-7.9,8.2-9.7c5-2.2,10.7-1.3,14.9,2.2l73.8,61.6c34.2,28.5,53.8,70.5,53.8,115V502
			c0,5.5,4.5,10,10,10s10-4.5,10-10v-39.6c0-49-21-95.3-57.7-127.6H211c5.5,0,10-4.5,10-10s-4.5-10-10-10h-82v-53
			c0-28.2,23-51.2,51.2-51.2h38.8c3.8,16.9,19,29.6,37.1,29.6s33.2-12.7,37.1-29.6h38.8c28.2,0,51.2,23,51.2,51.2v53h-82
			c-5.5,0-10,4.5-10,10s4.5,10,10,10h69.7C334,367.1,313,413.4,313,462.4V502c0,5.5,4.5,10,10,10s10-4.5,10-10v-39.6
			c0-44.5,19.6-86.4,53.8-115l73.8-61.6c4.2-3.5,9.9-4.3,14.9-2.2c4.2,1.8,7.2,5.3,8.2,9.7c1.1,4.4,0.1,8.9-2.8,12.4l-74.5,91.8
			c-3.5,4.3-2.8,10.6,1.5,14.1c4.3,3.5,10.6,2.8,14.1-1.5l70.1-86.4l0,37.6c0,21.7-6,43-17.4,61.6l-45.3,73.8
			c-2.9,4.7-1.4,10.9,3.3,13.8c1.6,1,3.4,1.5,5.2,1.5c3.4,0,6.6-1.7,8.5-4.8l45.3-73.8c13.3-21.7,20.3-46.6,20.3-72l0-195.7
			C512,156.6,508.5,148.1,502.1,141.7L502.1,141.7z M28.7,265.3c-3.2,1.4-6.1,3.2-8.7,5.4l0-105c0-3.7,1.4-7.2,4.1-9.8
			s6.1-4.1,9.9-4.1c7.7,0,13.9,6.2,13.9,13.9v97.2C41.5,261.8,34.9,262.6,28.7,265.3z M206.2,45.8c0-14.2,11.6-25.8,25.8-25.8h48.5
			c14.2,0,25.8,11.6,25.8,25.8v28.1h-100L206.2,45.8L206.2,45.8z M206.2,112.9V93.8h100v19.1c0,27.6-22.4,50-50,50
			S206.2,140.5,206.2,112.9L206.2,112.9z M256,220.3c-9.9,0-18-8.1-18-18v-21.7c5.8,1.6,11.9,2.4,18.2,2.4c6.2,0,12.1-0.8,17.8-2.3
			v21.6C274,212.2,265.9,220.3,256,220.3z M483.3,265.3c-6.2-2.7-12.8-3.4-19.2-2.4v-97.2c0-7.7,6.2-13.9,13.9-13.9
			c3.7,0,7.2,1.4,9.8,4.1s4.1,6.1,4.1,9.8l0,105C489.4,268.5,486.5,266.6,483.3,265.3L483.3,265.3z"/>
		<path id="XMLID_514_" class="st0" d="M256,314.9c-2.6,0-5.2,1.1-7.1,2.9c-1.9,1.9-2.9,4.4-2.9,7.1s1.1,5.2,2.9,7.1
			s4.4,2.9,7.1,2.9s5.2-1.1,7.1-2.9c1.9-1.9,2.9-4.4,2.9-7.1s-1.1-5.2-2.9-7.1C261.2,315.9,258.6,314.9,256,314.9z"/>
	</g>
</g>
</svg>
