<svg xmlns="http://www.w3.org/2000/svg" viewBox="0 0 512 346.44"><defs><style>.a{fill:#3cc;}</style></defs><title>familia</title><path class="a" d="M468.38,267h-50V252.4c13.81-10.36,24-24.6,25.28-41.62a31.49,31.49,0,0,0,26.31-31v-1.41A20.4,20.4,0,0,0,449.61,158h-2l.19-2.53a67.69,67.69,0,1,0-135,0l.19,2.53h-2a20.4,20.4,0,0,0-20.38,20.38v1.41a31.49,31.49,0,0,0,26.31,31c1.25,17,11.44,31.24,25.28,41.63V267H301.64c.73-9.81,1.87-25.37,2.6-35.21a48.37,48.37,0,1,0-96.48,0c0,.6,1.32,18,2.59,35.21H195.68v-56.3a31.49,31.49,0,0,0,25.81-30.93v-1.41A20.4,20.4,0,0,0,201.11,158h-2l.18-2.53a67.69,67.69,0,1,0-135,0c.05.63.18,2.37.19,2.53h-2A20.4,20.4,0,0,0,42,178.35v1.41A31.51,31.51,0,0,0,67.82,210.7V267H43.62A43.66,43.66,0,0,0,0,310.6v104a14.6,14.6,0,0,0,14.58,14.59H497.42A14.6,14.6,0,0,0,512,414.64V363.1a7.5,7.5,0,0,0-15,0v51.12H470.17v-78a7.5,7.5,0,0,0-15,0v78H347.87V337a32.06,32.06,0,0,0-32-32H284.31v-6.43A47.81,47.81,0,0,0,298.07,282h29.52a57.81,57.81,0,0,0,106.94,0h33.85A28.65,28.65,0,0,1,497,310.6v17.5a7.5,7.5,0,0,0,15,0V310.6A43.66,43.66,0,0,0,468.38,267Zm-182.68,5.6c-4.09,13.26-22,22.55-29.7,22.55s-25.63-9.3-29.71-22.57c0-.14-.08-.28-.12-.41a18.89,18.89,0,0,1-.67-3.75l-1.94-26.3a44.72,44.72,0,0,1,64.88,0l-1.94,26.3a18.69,18.69,0,0,1-.66,3.73c0,.15-.1.3-.14.45ZM256,194.86a33.36,33.36,0,0,1,33,28.24,59.76,59.76,0,0,0-66,0,33.37,33.37,0,0,1,33-28.24ZM105.89,242.73a7.18,7.18,0,0,0-1.12-.77c-11-7.71-20.52-19.05-21.47-32.05C79.67,160.73,80,165.1,80,164.79h23a90.74,90.74,0,0,0,55.15-18.5A30.44,30.44,0,0,0,183,172.5c-.57,7.67-1.83,24.8-2.76,37.41-.95,13-10.5,24.34-21.48,32.05a7,7,0,0,0-1.1.77c-9.17,6.18-19.15,9.83-25.87,9.83S115.05,248.91,105.89,242.73Zm64,9.68a76.56,76.56,0,0,0,10.78-9.77V267H169.9Zm36.59-74.06v1.41A16.48,16.48,0,0,1,196.35,195L198,173h3.15A5.38,5.38,0,0,1,206.49,178.35ZM131.75,97.78a52.7,52.7,0,0,1,52.55,56.56l-.23,3a15.4,15.4,0,0,1-11.15-14.78V134A9.31,9.31,0,0,0,157,127.41a75.92,75.92,0,0,1-54,22.37H79.06A52.66,52.66,0,0,1,131.75,97.78ZM57,179.76v-1.41A5.38,5.38,0,0,1,62.39,173h3.15l1.61,22A16.48,16.48,0,0,1,57,179.76Zm25.81,62.88a77.17,77.17,0,0,0,10.78,9.77V267H82.82ZM332.87,337v77.26H317.36V364.47a7.5,7.5,0,0,0-15,0v49.75H211.25V364.47a7.5,7.5,0,0,0-15,0v49.75H179.13v-8.68a7.5,7.5,0,0,0-15,0v8.68H58.44v-78a7.5,7.5,0,0,0-15,0v78H15V310.6A28.65,28.65,0,0,1,43.62,282H79.08a57.64,57.64,0,0,0,24.6,28.12,7.5,7.5,0,1,0,7.51-13A42.77,42.77,0,0,1,95.8,282a12.68,12.68,0,0,0,12.8-12.67v-7.89c8.5,4,16.81,6.13,23.15,6.13s14.65-2.14,23.15-6.13v7.89A12.69,12.69,0,0,0,167.57,282h1.71a43.13,43.13,0,0,1-29,20.15,7.5,7.5,0,0,0,2.67,14.76A58.28,58.28,0,0,0,186,282h27.91a47.89,47.89,0,0,0,13.75,16.52v6.43H196.15a32.06,32.06,0,0,0-32,32v33.58a7.5,7.5,0,1,0,15,0V337a17,17,0,0,1,17-17h22.51a41.65,41.65,0,0,0,75.77,0h21.41A17,17,0,0,1,332.87,337Zm-55.7-17.48a26.59,26.59,0,0,1-41.48-.3,11,11,0,0,0,7-10.25v-1.77a37.77,37.77,0,0,0,13.31,3,37.82,37.82,0,0,0,13.31-3v1.77A11,11,0,0,0,277.17,319.48ZM449.61,173a5.38,5.38,0,0,1,5.38,5.38v1.41A16.48,16.48,0,0,1,444.85,195c2.14-29.07,1.49-20.26,1.61-22Zm-108-58.36a52.68,52.68,0,0,1,91.24,38,86.26,86.26,0,0,1-6.09-13.31,24.89,24.89,0,0,0-39.73-9.4L380.25,136l-6.82-6.09a24.9,24.9,0,0,0-39.73,9.4,84.91,84.91,0,0,1-6.09,13.31,52,52,0,0,1,14-38Zm-36.14,65.15v-1.41a5.38,5.38,0,0,1,5.38-5.38H314c.54,7.45.42,5.73,1.61,22A16.48,16.48,0,0,1,305.51,179.76Zm26.29,30.15c-1-13.12-1.61-21.86-2.55-34.52a83.71,83.71,0,0,0,16.8-26.5l1.6-4a9.89,9.89,0,0,1,15.79-3.73l7.65,6.83a13.75,13.75,0,0,0,18.32,0l7.65-6.83a9.89,9.89,0,0,1,15.79,3.73l1.6,4a83.71,83.71,0,0,0,16.8,26.5c-.95,12.83-1.6,21.68-2.55,34.52-.95,13-10.5,24.34-21.48,32.06a7.61,7.61,0,0,0-1.1.75c-9.17,6.19-19.15,9.84-25.87,9.84s-16.7-3.65-25.87-9.83a7.74,7.74,0,0,0-1.1-.77c-11-7.71-20.53-19.05-21.48-32.05Zm49.26,92.92A43.13,43.13,0,0,1,344.33,282a12.68,12.68,0,0,0,12.77-12.67v-7.89c8.5,4,16.81,6.13,23.15,6.13s14.65-2.14,23.15-6.13v7.89A12.69,12.69,0,0,0,416.07,282h1.71a43.12,43.12,0,0,1-36.72,20.84Z" transform="translate(0 -82.78)"/></svg>