<svg xmlns="http://www.w3.org/2000/svg" viewBox="0 0 258.84 130.93"><defs><style>.a{font-size:14px;fill:#999;font-family:LaPaloma, La Paloma;}.b{letter-spacing:-0.02em;}.c{letter-spacing:-0.01em;}.d{letter-spacing:-0.02em;}.e{letter-spacing:-0.03em;}.f{font-size:10px;fill:#ccc;font-family:Montserrat-Regular, Montserrat;letter-spacing:0.17em;}.g{letter-spacing:0.2em;}.h{letter-spacing:0.18em;}.i{letter-spacing:0.19em;}.j{letter-spacing:0.18em;}.k{fill:#3cc;}</style></defs><title>KarlaLogo</title><text class="a" transform="translate(8.25 93.73) scale(0.99 1)">Karla Mar<tspan class="b" x="112.56" y="0">i</tspan><tspan x="118.97" y="0">a H</tspan><tspan class="c" x="160.44" y="0">e</tspan><tspan x="167.71" y="0">r</tspan><tspan class="d" x="177.95" y="0">n</tspan><tspan class="c" x="192.07" y="0">a</tspan><tspan x="203.6" y="0">nd</tspan><tspan class="e" x="227.81" y="0">e</tspan><tspan x="234.79" y="0">z</tspan></text><text class="f" transform="translate(45.01 123.07) scale(0.99 1)">A<tspan class="g" x="8.82" y="0" xml:space="preserve">TENCIÓN  PSI</tspan><tspan class="h" x="101.7" y="0">C</tspan><tspan class="g" x="110.74" y="0">O</tspan><tspan class="i" x="121.13" y="0">L</tspan><tspan class="g" x="128.88" y="0">ÓGI</tspan><tspan class="j" x="154.02" y="0">C</tspan><tspan class="g" x="163.03" y="0">A</tspan></text><path class="k" d="M169.36,1.24c-6.43-5.09-35.76,6.22-37,21.35a17.38,17.38,0,0,0,3.73,12.54,17.86,17.86,0,0,0-4.72,10.6c-1.28,13.82,25.4,22.81,30.25,18.27,3.2-3,2-15-2.52-23.67C171.4,32.86,175,5.69,169.36,1.24Z"/><path class="k" d="M126.55,35.13a17.38,17.38,0,0,0,3.73-12.54C129,7.46,99.7-3.85,93.27,1.24c-5.62,4.45-2,31.62,10.27,39.09C99,49,97.82,61,101,64c4.85,4.53,31.53-4.46,30.25-18.28A17.8,17.8,0,0,0,126.55,35.13Z"/></svg>