<svg xmlns="http://www.w3.org/2000/svg" viewBox="0 0 50 32.14"><defs><style>.a{fill:#999;}</style></defs><title>Nachogris</title><path class="a" d="M.66,20.11,24.47,32a1.23,1.23,0,0,0,1.06,0L49.34,20.11A1.17,1.17,0,0,0,50,19.05V11.9a1.19,1.19,0,0,0-.56-1,1.22,1.22,0,0,0-1.16-.05L25,22.48,1.73,10.84a1.34,1.34,0,0,0-.54-.13A1.19,1.19,0,0,0,0,11.9v7.15A1.17,1.17,0,0,0,.66,20.11Z"/><path class="a" d="M.66,9.4,24.47,21.3a1.17,1.17,0,0,0,1.06,0L49.34,9.4A1.19,1.19,0,0,0,50,8.33V1.19A1.18,1.18,0,0,0,48.28.13L25,11.76,1.73.13A1.19,1.19,0,0,0,0,1.19V8.33A1.19,1.19,0,0,0,.66,9.4Z"/></svg>